# xmcd
#
# Track frame offsets: 
#        150
#        9524
#        22228
#        38814
#        56733
#        66517
#        83182
#        94880
#        109739
#        132600
#        145049
#        159353
#        171490
#        182436
#        194343
#        205583
#        219033
#        233297
#        251333
#
# Disc length: 3637 seconds
#
# Revision: 1
# Processed by: cddbd v1.5.2PL0 Copyright (c) Steve Scherf et al.
# Submitted via: ExactAudioCopyFreeDBPlugin 1.0
#
DISCID=020e3313
DTITLE=Various Artist - Reckless Records Garage Sale 1997 - 2003
DYEAR=2003
DGENRE=Country
TTITLE0=Bill and Audrey - The Angels Rejoiced
TTITLE1=Audrey Auld - Fake Love With Me
TTITLE2=Bill Chambers - Goodbye
TTITLE3=Camille Te Nahu and Audrey Auld - I'm So Lonesome I Could Cry
TTITLE4=Bill Chambers - Hillbilly Daddy
TTITLE5=Audrey Auld - Cry
TTITLE6=Bill and Audrey - Tex and Buddy
TTITLE7=Audrey Auld - The World Changed Today
TTITLE8=Fred Eaglesmith and Audrey Auld - Wilder Than Her
TTITLE9=Rick Carey and Audrey Auld - I'll Never Be Fooled Again
TTITLE10=Audrey Auld - Mountain Home
TTITLE11=Bill Chambers - Going Crazy Without You
TTITLE12=Audrey Auld - 1800-Go-Tell-John
TTITLE13=Audrey Auld - Santa Spend Xmas With Me
TTITLE14=Audrey Auld - He's A Good Dog
TTITLE15=Audrey Auld - You Remind Me Of A Bad Memory
TTITLE16=Audrey Auld - Hobo's Meditation
TTITLE17=The Yearlings - Oh Susanna
TTITLE18=Mary Gauthier - Camelot Motel
EXTD=
EXTT0=
EXTT1=
EXTT2=
EXTT3=
EXTT4=
EXTT5=
EXTT6=
EXTT7=
EXTT8=
EXTT9=
EXTT10=
EXTT11=
EXTT12=
EXTT13=
EXTT14=
EXTT15=
EXTT16=
EXTT17=
EXTT18=
PLAYORDER=
